<svg xmlns="http://www.w3.org/2000/svg" version="1.1" xmlns:xlink="http://www.w3.org/1999/xlink" xmlns:svgjs="http://svgjs.dev/svgjs" width="2000" height="444" viewBox="0 0 2000 444"><g transform="matrix(1,0,0,1,-1.2121212121212466,-2.012928073108043)"><svg viewBox="0 0 396 88" data-background-color="#ffffff" preserveAspectRatio="xMidYMid meet" height="444" width="2000" xmlns="http://www.w3.org/2000/svg" xmlns:xlink="http://www.w3.org/1999/xlink"><g id="tight-bounds" transform="matrix(1,0,0,1,0.2400000000000091,0.3989587171925848)"><svg viewBox="0 0 395.52 87.20208256561484" height="87.20208256561484" width="395.52"><g><svg viewBox="0 0 395.52 87.20208256561484" height="87.20208256561484" width="395.52"><g><svg viewBox="0 0 533.1438422837938 117.54463327816678" height="87.20208256561484" width="395.52"><g transform="matrix(1,0,0,1,137.62384228379378,16.24531472947168)"><svg viewBox="0 0 395.52 85.05400381922342" height="85.05400381922342" width="395.52"><g id="textblocktransform"><svg viewBox="0 0 395.52 85.05400381922342" height="85.05400381922342" width="395.52" id="textblock"><g><svg viewBox="0 0 395.52 85.05400381922342" height="85.05400381922342" width="395.52"><g transform="matrix(1,0,0,1,0,0)"><svg width="395.52" viewBox="2.34 -39.79 230.12 49.48" height="85.05400381922342" data-palette-color="#0b82e6"><path d="M28.88-16.55L35.13-16.55 35.13 0 2.34 0 2.34-8.59 7.06-8.59 7.06-30.25 2.34-30.25 2.34-38.84 35.13-38.84 35.13-23.39 28.88-23.39 26.54-30.25 19.56-30.25 19.56-23.9 25.81-23.9 25.81-17.5 19.56-17.5 19.56-8.59 26.54-8.59 28.88-16.55ZM69.87-16.6L69.87-16.6 69.87-7.06 73.26-7.06 73.26 0 58.15 0 58.15-16.65Q58.15-17.7 57.48-18.51 56.81-19.31 55.86-19.31L55.86-19.31Q54.07-19.31 53.61-17.53L53.61-17.53Q53.12-15.7 53.12-12.4L53.12-12.4 53.12-7.06 53.17-7.06 53.17 0 37.91 0 37.91-7.06 41.45-7.06 41.45-18.6 37.91-18.6 37.91-25.2 53.12-26.66 53.12-23Q54.81-25 56.96-25.83 59.1-26.66 61.81-26.66L61.81-26.66Q69.87-26.66 69.87-16.6ZM109.2 2.29L109.2 9.69 91.69 9.69 91.69 2.34 94.45 2.34 94.45-2.91Q91.18 0.44 86.81 0.44L86.81 0.44Q83.22 0.44 80.76-1.42L80.76-1.42Q78.24-3.25 77-6.35 75.75-9.45 75.75-13.21L75.75-13.21Q75.75-16.92 77.02-19.97L77.02-19.97Q78.29-23.05 80.77-24.85 83.25-26.66 86.76-26.66L86.76-26.66Q89.4-26.66 91.3-25.48 93.21-24.29 94.45-22.51L94.45-22.51 96.21-26.15 108.61-26.15 108.61-18.6 106.29-18.6 106.29 2.29 109.2 2.29ZM91.3-7.2L91.3-7.2Q92.55-7.2 93.5-7.87 94.45-8.54 94.45-9.5L94.45-9.5 94.45-16.7Q94.21-17.75 93.33-18.37 92.45-18.99 91.21-18.99L91.21-18.99Q87.25-18.99 87.25-13.06L87.25-13.06Q87.25-10.45 88.2-8.83 89.16-7.2 91.3-7.2ZM123.45 0.44L123.45 0.44Q115.59 0.44 115.59-9.4L115.59-9.4 115.59-18.6 112.44-18.6 112.44-25.2 127.29-26.66 127.29-9.4Q127.29-8.45 128-7.65 128.7-6.86 129.66-6.86L129.66-6.86Q130.75-6.86 131.38-7.6 132-8.35 132-9.45L132-9.45 132-18.6 129.66-18.6 129.66-25.2 143.69-26.66 143.69-7.35 146.84-7.35 146.84 0 132 0 132-3.81Q130.71-1.81 128.54-0.68 126.38 0.44 123.45 0.44ZM159.56-28.71L159.56-28.71Q156.51-28.71 154.53-30.15 152.55-31.59 152.55-34.3L152.55-34.3Q152.55-37.01 154.53-38.4 156.51-39.79 159.61-39.79L159.61-39.79Q162.71-39.79 164.65-38.43 166.59-37.06 166.59-34.3L166.59-34.3Q166.59-31.59 164.6-30.15 162.61-28.71 159.56-28.71ZM165.4-7.35L168.54-7.35 168.54 0 150.55 0 150.55-7.35 153.7-7.35 153.7-18.6 150.55-18.6 150.55-24.61 165.4-26.15 165.4-7.35ZM190.42-7.35L190.42 0 171.67 0 171.67-7.35 174.82-7.35 174.82-18.6 171.67-18.6 171.67-25.2 186.51-26.66 186.51-22.41Q187.29-23.63 188.81-24.6 190.32-25.56 192.04-26.11 193.76-26.66 195.13-26.66L195.13-26.66 195.13-16.31Q192.27-17.26 190.42-17.26L190.42-17.26Q188.07-17.26 187.29-15.91 186.51-14.55 186.51-12.35L186.51-12.35 186.51-7.35 190.42-7.35ZM219.15 1.49L222.91 1.49 222.91 9.2 206.02 9.2 206.02 1.49 210.97 1.49 212.31-0.76 200.91-18.6 197.81-18.6 197.81-26.15 216.12-26.15 216.12-18.6 213.71-18.6 217.76-11.11 221.47-18.6 218.81-18.6 218.81-26.15 232.46-26.15 232.46-18.6 229.82-18.6 219.15 1.49Z" opacity="1" transform="matrix(1,0,0,1,0,0)" fill="#0b82e6" class="wordmark-text-0" data-fill-palette-color="primary" id="text-0"></path></svg></g></svg></g></svg></g></svg></g><g><svg viewBox="0 0 117.54463327816678 117.54463327816678" height="117.54463327816678" width="117.54463327816678"><g data-palette-color="#86eaaa"><rect width="32.12886642936559" height="117.54463327816678" fill="#86eaaa" stroke="transparent" data-fill-palette-color="accent" x="0" fill-opacity="0.5"></rect><rect width="32.12886642936559" height="117.54463327816678" fill="#86eaaa" stroke="transparent" data-fill-palette-color="accent" x="39.181544426055595" fill-opacity="0.75"></rect><rect width="32.12886642936559" height="117.54463327816678" fill="#86eaaa" stroke="transparent" data-fill-palette-color="accent" x="78.36308885211119" fill-opacity="1"></rect></g></svg></g></svg></g></svg></g><defs></defs></svg><rect width="395.52" height="87.20208256561484" fill="none" stroke="none" visibility="hidden"></rect></g></svg></g></svg>