<svg xmlns="http://www.w3.org/2000/svg" version="1.1" xmlns:xlink="http://www.w3.org/1999/xlink" xmlns:svgjs="http://svgjs.dev/svgjs" width="2000" height="1960" viewBox="0 0 2000 1960"><g transform="matrix(1,0,0,1,-2.391420371072627,-3.161290322580726)"><svg viewBox="0 0 253 248" data-background-color="#293040" preserveAspectRatio="xMidYMid meet" height="1960" width="2000" xmlns="http://www.w3.org/2000/svg" xmlns:xlink="http://www.w3.org/1999/xlink"><g id="tight-bounds" transform="matrix(1,0,0,1,0.3025146769406888,0.4000000000000057)"><svg viewBox="0 0 252.39497064611865 247.2" height="247.2" width="252.39497064611865"><g><svg viewBox="0 0 395.52 387.37912942443785" height="247.2" width="252.39497064611865"><g transform="matrix(1,0,0,1,0,276.4811505221293)"><svg viewBox="0 0 395.52 110.89797890230851" height="110.89797890230851" width="395.52"><g id="textblocktransform"><svg viewBox="0 0 395.52 110.89797890230851" height="110.89797890230851" width="395.52" id="textblock"><g><svg viewBox="0 0 395.52 110.89797890230851" height="110.89797890230851" width="395.52"><g transform="matrix(1,0,0,1,0,0)"><svg width="395.52" viewBox="3.71 -34.55 159.67999999999998 44.78" height="110.89797890230851" data-palette-color="#d5b263"><path d="M24.37-2.32L24.37-2.32Q24.37-0.98 22.29-0.63L22.29-0.63Q18.77-0.05 13.16-0.05L13.16-0.05 10.62-0.05Q5.96-0.05 4.83-1.17 3.71-2.29 3.71-6.35L3.71-6.35 3.71-8.89Q3.71-13.11 4.09-18.26 4.47-23.41 4.47-27.87 4.47-32.32 5.71-33.11L5.71-33.11Q8.03-34.55 16.36-34.55L16.36-34.55 18.8-34.55Q21.53-34.55 22.68-34.2 23.83-33.86 23.83-32.74L23.83-32.74Q23.83-31.45 22.03-30.97 20.24-30.49 16.21-30.3 12.18-30.1 11.18-29.35L11.18-29.35Q9.59-28.13 9.59-23.44L9.59-23.44Q9.59-21.31 10.72-20.85 11.84-20.39 15.99-20.12 20.14-19.85 20.17-19.85L20.17-19.85Q21.46-19.53 21.46-18.03 21.46-16.53 20-16.11L20-16.11Q19.6-15.99 15.34-15.67 11.08-15.36 10.21-14.87L10.21-14.87Q8.96-14.18 8.96-11.13L8.96-11.13Q8.96-6.25 10.47-5L10.47-5Q11.3-4.32 16.33-4.32L16.33-4.32 20.19-4.37Q24.37-4.37 24.37-2.32ZM31.2-20.97Q31.47-22.92 32.71-22.92 33.96-22.92 34.98-22.09 36.01-21.26 36.3-21.26 36.59-21.26 37.9-21.98 39.21-22.71 39.52-22.85L39.52-22.85Q41.5-23.73 43.5-23.73L43.5-23.73Q47.21-23.73 49.01-21.26 50.8-18.8 50.8-12.33L50.8-12.33Q50.8-11.01 51.16-6.85 51.51-2.69 51.51-2.56L51.51-2.56Q51.51-0.98 49.68-0.98 47.85-0.98 47.25-3 46.65-5.03 46.2-10.71 45.75-16.38 45.19-17.7L45.19-17.7Q44.14-20.19 41.35-20.19L41.35-20.19Q39.96-20.19 38.71-19.38 37.45-18.58 36.73-17.02 36.01-15.45 35.56-9.62 35.1-3.78 34.84-2.78 34.57-1.78 33.99-1.26 33.42-0.73 32.41-0.73 31.39-0.73 30.99-1.21 30.59-1.68 30.59-3.25L30.59-3.25 30.59-3.86 30.61-4.49 30.69-7.67Q30.69-8.3 30.69-8.94L30.69-8.94 30.73-10.84Q30.73-17.46 31.2-20.97L31.2-20.97ZM72.31-14.18L72.29-14.43 72.24-15.67Q72.24-18.33 71.13-19.54 70.01-20.75 68.16-20.75L68.16-20.75 67.45-20.75Q64.86-20.75 63.23-18.52 61.59-16.28 61.59-12.89L61.59-12.89 61.54-12.35 61.52-11.55 61.52-10.74 61.54-10.47 61.57-9.94Q61.59-9.67 61.59-9.42L61.59-9.42Q61.59-7.08 63.04-5.1 64.5-3.13 66.57-3.13L66.57-3.13 66.82-3.13 67.04-3.15Q69.53-3.15 70.87-4.86 72.21-6.57 72.21-9.89L72.21-9.89 72.26-10.38 72.26-10.89 72.31-12.16 72.31-14.18ZM77.51-13.04L77.51-13.04 77.51-4.88 77.53-3.3Q77.53-2.49 77.53-1.68L77.53-1.68 77.56-0.1Q77.56 0.71 77.56 1.51L77.56 1.51 77.58 2.05Q77.58 2.59 77.58 3.13L77.58 3.13 77.61 3.66Q77.63 4.2 77.63 4.69L77.63 4.69 77.7 6.27 77.7 7.79Q77.7 9.03 77.34 9.63 76.97 10.23 75.52 10.23 74.07 10.23 73.43 9.16 72.8 8.08 72.8 5.13L72.8 5.13Q72.8-0.66 71.45-0.66L71.45-0.66Q71.38-0.68 70.67-0.44L70.67-0.44Q68.5 0.27 66.55 0.27L66.55 0.27Q64.5 0.27 62.69-0.51L62.69-0.51Q59.15-2.05 57.73-6.88L57.73-6.88Q56.98-9.47 56.98-11.74L56.98-11.74 56.98-12.89Q56.98-17.82 59.47-20.97L59.47-20.97Q60.83-22.71 62.69-23.54 64.55-24.37 66.28-24.37L66.28-24.37 66.82-24.37Q68.57-24.37 70.69-23.61 72.8-22.85 73.29-22.85L73.29-22.85 74.65-22.97Q77.02-22.97 77.34-20.92L77.34-20.92Q77.51-19.87 77.51-13.04ZM93.06-3.74L93.06-3.74Q94.69-3.74 96.15-4.58 97.6-5.42 98.42-7.15 99.24-8.89 99.69-14.67 100.14-20.46 100.29-21.07L100.29-21.07Q100.7-22.97 102.2-22.97 103.7-22.97 104.09-21.84 104.48-20.7 104.48-17.48 104.48-14.26 104.77-11.02 105.05-7.79 105.05-5.79L105.05-5.79 105.1-4.69Q105.1-2.61 104.42-1.87 103.75-1.12 102.67-1.12 101.58-1.12 100.63-1.68 99.68-2.25 99.26-2.25 98.85-2.25 97.73-1.78 96.62-1.32 95.49-0.92 94.35-0.51 92.45-0.51L92.45-0.51 91.86-0.51Q87.96-0.51 86.08-3.17 84.2-5.83 84.2-12.26L84.2-12.26 84.2-14.82 84.22-15.45 84.22-16.7Q84.22-22.07 84.49-22.73L84.49-22.73Q84.88-23.71 86.53-23.71 88.18-23.71 88.81-21.73L88.81-21.73Q89.06-20.97 89.06-14.31 89.06-7.64 89.64-6.2L89.64-6.2Q90.64-3.74 93.06-3.74ZM117.47-31.74L117.47-31.27Q117.47-28.74 114.59-28.74L114.59-28.74 114.39-28.74 114.3-28.76 113.56-28.83Q113.47-28.86 113.39-28.86L113.39-28.86Q111.81-28.86 111.81-31.03L111.81-31.03 111.81-31.49Q111.81-32.84 112.42-33.45 113.03-34.06 113.93-34.06L113.93-34.06 114.49-34.13 115.05-34.13 115.88-34.01Q117.4-34.01 117.4-32.3L117.4-32.3 117.47-31.74ZM116.66-11.25L116.66-11.25 117.69-3.76 117.69-3.22 117.67-2.98Q117.67-1.39 117.01-0.73 116.35-0.07 114.44-0.07L114.44-0.07 114.15-0.07Q112.44-0.07 111.98-1.93L111.98-1.93Q111.73-2.88 111.73-9.28L111.73-9.28 111.73-19.73 111.61-21.36 111.61-21.9Q111.61-23.1 112.05-23.56 112.49-24.02 113.44-24.02L113.44-24.02 114.27-24.02Q116.01-24.02 116.4-22.78L116.4-22.78Q116.57-22.24 116.57-18.77L116.57-18.77 116.57-13.5 116.64-12.04Q116.66-11.74 116.66-11.25ZM124.47-19.24L124.47-19.97Q124.47-21.66 124.89-22.47 125.3-23.29 126.43-23.29 127.55-23.29 129.02-22.49 130.48-21.68 130.66-21.68 130.85-21.68 131.48-22.12L131.48-22.12Q133.85-23.78 135.68-23.78L135.68-23.78 136.36-23.78Q137.49-23.78 138.26-23.17 139.03-22.56 139.03-21.45 139.03-20.34 138.05-19.82L138.05-19.82Q137.63-19.6 136.32-19.46 135-19.31 133.74-18.82 132.48-18.33 131.51-16.92L131.51-16.92Q130.09-14.84 130.09-8.84L130.09-8.84 129.99-6.1 129.94-4.54Q129.94-2.37 129.25-1.34 128.55-0.32 126.89-0.32L126.89-0.32 126.53-0.32Q125.06-0.32 124.74-1.81L124.74-1.81Q124.72-1.93 124.72-6.45L124.72-6.45 124.72-11.35 124.69-11.77 124.69-12.57 124.67-12.99Q124.67-13.4 124.67-13.82L124.67-13.82 124.57-16.97 124.47-19.24ZM145.37-23.05L145.37-23.05Q146.71-23.05 147.65-21.02 148.59-18.99 149.96-13.31 151.33-7.62 152.74-6.23L152.74-6.23Q154.09-6.23 155.75-10.23L155.75-10.23Q156.67-12.45 157.72-16.97 158.77-21.48 159.43-22.72 160.09-23.95 161.31-23.95L161.31-23.95 161.85-23.95Q163.39-23.95 163.39-22.31L163.39-22.31Q163.39-21.51 161.23-11.87 159.07-2.22 157.14 1.71 155.21 5.64 152.56 7.79 149.91 9.94 147.81 9.94L147.81 9.94 147.45 9.94Q145.83 9.94 145.83 8.89L145.83 8.89Q145.83 8.06 148.17 6.57 150.5 5.08 150.91 4.57L150.91 4.57Q152.4 2.73 152.4 0.73L152.4 0.73Q152.4-0.29 150.05-3.87 147.69-7.45 146.35-10.77L146.35-10.77Q143.08-18.87 143.08-21.46L143.08-21.46Q143.08-23.05 145.37-23.05Z" opacity="1" transform="matrix(1,0,0,1,0,0)" fill="#000000" class="wordmark-text-0" data-fill-palette-color="primary" id="text-0"></path></svg></g></svg></g></svg></g></svg></g><g transform="matrix(1,0,0,1,85.69977600627672,0)"><svg viewBox="0 0 224.12044798744654 224.12044798744654" height="224.12044798744654" width="224.12044798744654"><g><svg></svg></g><g id="icon-0"><svg viewBox="0 0 224.12044798744654 224.12044798744654" height="224.12044798744654" width="224.12044798744654"><g><path d="M0 112.06c0-61.889 50.171-112.06 112.06-112.06 61.889 0 112.06 50.171 112.06 112.06 0 61.889-50.171 112.06-112.06 112.06-61.889 0-112.06-50.171-112.06-112.06zM112.06 214.12c56.366 0 102.059-45.694 102.06-102.06 0-56.366-45.694-102.059-102.06-102.059-56.366 0-102.059 45.694-102.059 102.059 0 56.366 45.694 102.059 102.059 102.06z" data-fill-palette-color="accent" fill="#000000" stroke="transparent"></path></g><g transform="matrix(1,0,0,1,50.158127520834746,50.15903018612347)"><svg viewBox="0 0 123.80419294577705 123.80238761519959" height="123.80238761519959" width="123.80419294577705"><g><svg xmlns="http://www.w3.org/2000/svg" xmlns:xlink="http://www.w3.org/1999/xlink" version="1.1" x="0" y="0" viewBox="15.569 15.313 69.37501163641423 69.374" enable-background="new 0 0 100 100" xml:space="preserve" height="123.80238761519959" width="123.80419294577705" class="icon-dxe-0" data-fill-palette-color="accent" id="dxe-0"><path fill="#000000" d="M31.506 37.812A4 4 0 0 0 31.444 37.125L28.459 35.633C28.034 36.148 27.756 36.925 27.756 37.812 27.756 39.365 28.594 40.624 29.631 40.624S31.506 39.365 31.506 37.812" data-fill-palette-color="accent"></path><path fill="#000000" d="M46.568 37.126A4 4 0 0 0 46.506 37.813C46.506 39.366 47.344 40.625 48.381 40.625S50.256 39.365 50.256 37.813C50.256 36.926 49.978 36.149 49.553 35.634z" data-fill-palette-color="accent"></path><path fill="#000000" d="M39.006 42.5C34.353 42.5 30.568 46.285 30.568 50.938A0.937 0.937 0 1 0 32.444 50.938C32.444 47.32 35.388 44.376 39.006 44.376S45.568 47.32 45.568 50.938A0.937 0.937 0 1 0 47.444 50.938C47.444 46.285 43.659 42.5 39.006 42.5" data-fill-palette-color="accent"></path><path fill="#000000" d="M39.006 19.062C28.15 19.062 19.318 27.893 19.318 38.75S28.149 58.438 39.006 58.438 58.694 49.607 58.694 38.75 49.863 19.062 39.006 19.062M39.006 56.562C29.184 56.562 21.194 48.572 21.194 38.75S29.185 20.938 39.006 20.938 56.818 28.928 56.818 38.75 48.828 56.562 39.006 56.562" data-fill-palette-color="accent"></path><path fill="#000000" d="M66.06 57.848C64.887 56.674 63.235 56.174 61.629 56.297L57.898 52.566C60.742 48.686 62.444 43.92 62.444 38.751 62.444 25.827 51.93 15.313 39.006 15.313S15.569 25.826 15.569 38.75 26.083 62.188 39.007 62.188C44.176 62.188 48.942 60.485 52.822 57.641L56.508 61.328C56.493 61.494 56.458 61.657 56.458 61.828 56.458 63.329 57.042 64.741 58.104 65.805L75.34 83.039C76.402 84.101 77.814 84.687 79.317 84.687S82.232 84.101 83.296 83.039A5.6 5.6 0 0 0 84.944 79.062 5.6 5.6 0 0 0 83.296 75.083zM17.444 38.75C17.444 26.861 27.117 17.188 39.006 17.188S60.568 26.862 60.568 38.75 50.895 60.312 39.006 60.312 17.444 50.639 17.444 38.75M54.301 56.469A23.6 23.6 0 0 0 56.725 54.045L59.541 56.861C59.021 57.115 58.527 57.428 58.105 57.849A5.6 5.6 0 0 0 57.1 59.268zM81.97 81.714C80.553 83.131 78.083 83.131 76.665 81.714L59.43 64.479A3.73 3.73 0 0 1 58.333 61.828 3.72 3.72 0 0 1 59.432 59.177 3.72 3.72 0 0 1 62.083 58.078C63.085 58.078 64.026 58.468 64.734 59.175L81.97 76.409A3.755 3.755 0 0 1 81.97 81.714" data-fill-palette-color="accent"></path><path fill="#000000" d="M39.006 24.688C40.236 24.688 41.456 24.845 42.628 25.159A0.937 0.937 0 1 0 43.111 23.347 16 16 0 0 0 39.006 22.814 0.937 0.937 0 1 0 39.006 24.688" data-fill-palette-color="accent"></path><path fill="#000000" d="M52.957 31.034A16.03 16.03 0 0 0 46.986 24.947 0.94 0.94 0 0 0 46.045 26.57 14.1 14.1 0 0 1 51.316 31.942 0.935 0.935 0 0 0 52.59 32.308 0.936 0.936 0 0 0 52.957 31.034" data-fill-palette-color="accent"></path></svg></g></svg></g></svg></g></svg></g><g></g></svg></g><defs></defs></svg><rect width="252.39497064611865" height="247.2" fill="none" stroke="none" visibility="hidden"></rect></g></svg></g></svg>